<svg width="347" height="383" xmlns="http://www.w3.org/2000/svg">

 <clipPath id="imagebot_1">
  <path id="imagebot_2" clip-rule="nonzero" d="M 0 0 L 338 0 L 338 382 L 0 382 L 0 0 Z"/>
 </clipPath>
 <g>
  <title>Layer 1</title>
  <g id="imagebot_77" transform="rotate(342.913 179.91 152.388) matrix(1 0 0 1 12 -46)">
   <path id="imagebot_78" clip-path="url(#imagebot_1)" fill-rule="nonzero" d="M23.1412,88.7043L253.33701,38.0993L312.67899,308.07101L82.4833,358.67599L23.1412,88.7043z" fill="#ebf3bb"/>
   <path id="imagebot_79" clip-path="url(#imagebot_1)" fill-rule="nonzero" d="M135.993,53.0645L249.215,38.0994L251.48,123.68L138.258,138.645L135.993,53.0645z" fill-opacity="0" fill="#000000"/>
   <path id="imagebot_80" clip-path="url(#imagebot_1)" fill-rule="nonzero" d="M162.56609,67.9934Q162.92493,66.68286 163.72548,66.42133Q164.54088,66.14305 165.6162,66.06531Q167.23697,65.94813 169.36792,67.9716Q171.51447,69.99396 173.80994,73.47812Q176.12022,76.94555 178.51457,81.50351Q180.92374,86.04472 183.19293,90.92505Q185.46136,95.78976 187.47969,100.65688Q189.49725,105.5084 191.00803,109.58193Q192.53362,113.63873 193.38371,116.66343Q194.24864,119.67139 194.30379,120.811Q194.35893,121.95062 193.86333,123.02039Q193.38332,124.08904 192.04308,124.18594Q191.18593,124.24791 190.55246,123.76108Q189.91899,123.27424 189.46045,122.5241Q189.00114,121.75835 188.60493,121.00371Q188.20872,120.24907 187.90027,119.69173Q187.58197,118.93146 186.57158,116.79563Q185.57602,114.64307 184.49271,112.2932Q183.42497,109.9422 182.46436,107.86544Q181.51932,105.78755 181.11632,104.89241Q176.10336,104.39323 171.04897,104.0067Q165.99455,103.62017 160.41254,103.31879L159.63333,103.37512Q157.61154,114.59701 155.95837,121.15517Q154.32002,127.69659 153.12679,130.50871Q151.94838,133.30409 151.17767,132.88983Q150.40773,132.4912 150.02242,129.69922Q149.63634,126.89162 149.73625,122.169Q149.83615,117.44637 150.45102,111.7309Q151.06512,105.99982 152.04317,99.70979Q153.02119,93.41977 154.55025,87.52854Q156.09413,81.62058 158.08325,76.51071Q160.08719,71.38411 162.56609,67.9934zM162.06491,93.18889Q162.19258,95.82717 163.95169,96.95325Q165.72639,98.07821 168.15935,98.26262Q170.60712,98.43029 173.26901,98.17517Q175.93016,97.90445 177.84703,97.76585Q177.70955,94.92462 176.61435,91.68266Q175.53398,88.42396 173.95795,85.26376Q172.38115,82.08794 170.6264,79.11298Q168.8709,76.12241 167.40979,73.72153Q166.66833,74.55843 165.882,76.73016Q165.09491,78.88628 164.31717,81.55869Q163.55426,84.21437 162.95824,86.76399Q162.37779,89.31248 162.09489,90.89951Q162.10547,91.11807 162.0706,92.01354Q162.05132,92.90788 162.06491,93.18889zM198.4046,108.29521Q198.12408,108.31549 197.51649,107.71712Q196.92374,107.10201 196.76686,106.76871Q196.68517,106.69629 196.67459,106.47773Q196.60545,106.34174 196.59563,106.13879Q196.58128,105.84218 196.6338,105.63473Q196.627,105.49422 196.69737,105.33248Q196.95749,104.8907 197.49133,104.28813Q198.04001,103.66883 198.18027,103.65869L213.40614,102.55786Q213.6479,98.82759 214.20485,94.82388Q214.76103,90.80457 215.64174,87.0281L216.49889,86.96613L217.27809,86.90979Q217.58099,87.02888 218.0762,87.24373Q218.58698,87.45745 219.09625,87.63995Q219.60553,87.82246 219.97604,88.04632Q220.34583,88.25457 220.34959,88.33263L221.03925,102.58562Q222.25482,102.49774 224.07489,101.97451Q225.90977,101.43453 227.63812,101.27824Q229.38206,101.12083 230.61453,101.70534Q231.86259,102.28874 231.96608,104.42747Q232.02499,105.64514 231.24557,106.3438Q230.46617,107.04244 229.26645,107.45816Q228.06598,107.85827 226.71544,108.06557Q225.38046,108.27175 224.14581,108.61167Q222.91115,108.95159 222.15762,109.5387Q221.40408,110.12582 221.45242,111.12494Q221.53552,112.84217 222.35608,114.28676Q223.17589,115.71574 224.13368,117.08774Q225.09073,118.44413 225.86453,119.8921Q226.65317,121.32333 226.73627,123.04056Q226.89111,126.24085 223.69633,126.47183Q222.20023,126.58 220.9416,125.77805Q219.69855,124.97497 218.65981,123.54616Q217.63666,122.11622 216.79947,120.32818Q215.96153,118.52454 215.32469,116.67502Q214.70341,114.82438 214.33905,113.11182Q213.97394,111.38364 213.77477,110.17612L198.4046,108.29521z" fill="#cc0000"/>
   <path id="imagebot_81" clip-path="url(#imagebot_1)" fill-rule="nonzero" d="M53.04317,113.38284L101.31332,102.77141" fill-opacity="0" fill="#000000"/>
   <path id="imagebot_82" clip-path="url(#imagebot_1)" fill-rule="nonzero" d="M53.04317,113.38284L101.31332,102.77141" stroke-linejoin="round" stroke-width="2" stroke="#000000"/>
   <path id="imagebot_83" clip-path="url(#imagebot_1)" fill-rule="nonzero" d="M57.80074,135.02692L80.31329,130.07788" fill-opacity="0" fill="#000000"/>
   <path id="imagebot_84" clip-path="url(#imagebot_1)" fill-rule="nonzero" d="M57.80074,135.02692L80.31329,130.07788" stroke-linejoin="round" stroke-width="2" stroke="#000000"/>
   <path id="imagebot_85" clip-path="url(#imagebot_1)" fill-rule="nonzero" d="M61.57029,152.17616L116.33054,140.13799" fill-opacity="0" fill="#000000"/>
   <path id="imagebot_86" clip-path="url(#imagebot_1)" fill-rule="nonzero" d="M61.57029,152.17616L116.33054,140.13799" stroke-linejoin="round" stroke-width="2" stroke="#000000"/>
   <path id="imagebot_87" clip-path="url(#imagebot_1)" fill-rule="nonzero" d="M77.20912,196.4413L238.24483,161.04015" fill-opacity="0" fill="#000000"/>
   <path id="imagebot_88" clip-path="url(#imagebot_1)" fill-rule="nonzero" d="M77.20912,196.4413L238.24483,161.04015" stroke-linejoin="round" stroke-width="2" stroke="#000000"/>
   <path id="imagebot_89" clip-path="url(#imagebot_1)" fill-rule="nonzero" d="M82.63461,217.13405L259.69275,178.21062" fill-opacity="0" fill="#000000"/>
   <path id="imagebot_90" clip-path="url(#imagebot_1)" fill-rule="nonzero" d="M82.63461,217.13405L259.69275,178.21062" stroke-linejoin="round" stroke-width="2" stroke="#000000"/>
   <path id="imagebot_91" clip-path="url(#imagebot_1)" fill-rule="nonzero" d="M86.52004,238.96164L258.81201,201.08598" fill-opacity="0" fill="#000000"/>
   <path id="imagebot_92" clip-path="url(#imagebot_1)" fill-rule="nonzero" d="M86.52004,238.96164L258.81201,201.08598" stroke-linejoin="round" stroke-width="2" stroke="#000000"/>
   <path id="imagebot_93" clip-path="url(#imagebot_1)" fill-rule="nonzero" d="M93.95237,261.16699L261.70724,225.86488" fill-opacity="0" fill="#000000"/>
   <path id="imagebot_94" clip-path="url(#imagebot_1)" fill-rule="nonzero" d="M93.95237,261.16699L261.70724,225.86488" stroke-linejoin="round" stroke-width="2" stroke="#000000"/>
   <path id="imagebot_95" clip-path="url(#imagebot_1)" fill-rule="nonzero" d="M96.17983,286.49493L276.48303,246.85814" fill-opacity="0" fill="#000000"/>
   <path id="imagebot_96" clip-path="url(#imagebot_1)" fill-rule="nonzero" d="M96.17983,286.49493L276.48303,246.85814" stroke-linejoin="round" stroke-width="2" stroke="#000000"/>
   <path id="imagebot_97" clip-path="url(#imagebot_1)" fill-rule="nonzero" d="M103.86338,306.25623L271.61826,270.9541" fill-opacity="0" fill="#000000"/>
   <path id="imagebot_98" clip-path="url(#imagebot_1)" fill-rule="nonzero" d="M103.86338,306.25623L271.61826,270.9541" stroke-linejoin="round" stroke-width="2" stroke="#000000"/>
   <path id="imagebot_99" clip-path="url(#imagebot_1)" fill-rule="nonzero" d="M105.50734,328.92957L285.81055,289.29276" fill-opacity="0" fill="#000000"/>
   <path id="imagebot_100" clip-path="url(#imagebot_1)" fill-rule="nonzero" d="M105.50734,328.92957L285.81055,289.29276" stroke-linejoin="round" stroke-width="2" stroke="#000000"/>
  </g>
  <g id="imagebot_28" transform="rotate(0.0279384 204.91 215.388) matrix(1 0 0 1 37 17)">
   <path id="imagebot_30" clip-path="url(#imagebot_1)" fill-rule="nonzero" d="M23.1412,88.7043L253.33701,38.0993L312.67899,308.07101L82.4833,358.67599L23.1412,88.7043z" fill="#aaff56"/>
   <path id="imagebot_31" clip-path="url(#imagebot_1)" fill-rule="nonzero" d="M135.993,53.0645L249.215,38.0994L251.48,123.68L138.258,138.645L135.993,53.0645z" fill-opacity="0" fill="#aaff56"/>
   <path id="imagebot_32" clip-path="url(#imagebot_1)" fill-rule="nonzero" d="M162.56609,67.9934Q162.92493,66.68286 163.72548,66.42133Q164.54088,66.14305 165.6162,66.06531Q167.23697,65.94813 169.36792,67.9716Q171.51447,69.99396 173.80994,73.47812Q176.12022,76.94555 178.51457,81.50351Q180.92374,86.04472 183.19293,90.92505Q185.46136,95.78976 187.47969,100.65688Q189.49725,105.5084 191.00803,109.58193Q192.53362,113.63873 193.38371,116.66343Q194.24864,119.67139 194.30379,120.811Q194.35893,121.95062 193.86333,123.02039Q193.38332,124.08904 192.04308,124.18594Q191.18593,124.24791 190.55246,123.76108Q189.91899,123.27424 189.46045,122.5241Q189.00114,121.75835 188.60493,121.00371Q188.20872,120.24907 187.90027,119.69173Q187.58197,118.93146 186.57158,116.79563Q185.57602,114.64307 184.49271,112.2932Q183.42497,109.9422 182.46436,107.86544Q181.51932,105.78755 181.11632,104.89241Q176.10336,104.39323 171.04897,104.0067Q165.99455,103.62017 160.41254,103.31879L159.63333,103.37512Q157.61154,114.59701 155.95837,121.15517Q154.32002,127.69659 153.12679,130.50871Q151.94838,133.30409 151.17767,132.88983Q150.40773,132.4912 150.02242,129.69922Q149.63634,126.89162 149.73625,122.169Q149.83615,117.44637 150.45102,111.7309Q151.06512,105.99982 152.04317,99.70979Q153.02119,93.41977 154.55025,87.52854Q156.09413,81.62058 158.08325,76.51071Q160.08719,71.38411 162.56609,67.9934zM162.06491,93.18889Q162.19258,95.82717 163.95169,96.95325Q165.72639,98.07821 168.15935,98.26262Q170.60712,98.43029 173.26901,98.17517Q175.93016,97.90445 177.84703,97.76585Q177.70955,94.92462 176.61435,91.68266Q175.53398,88.42396 173.95795,85.26376Q172.38115,82.08794 170.6264,79.11298Q168.8709,76.12241 167.40979,73.72153Q166.66833,74.55843 165.882,76.73016Q165.09491,78.88628 164.31717,81.55869Q163.55426,84.21437 162.95824,86.76399Q162.37779,89.31248 162.09489,90.89951Q162.10547,91.11807 162.0706,92.01354Q162.05132,92.90788 162.06491,93.18889zM198.4046,108.29521Q198.12408,108.31549 197.51649,107.71712Q196.92374,107.10201 196.76686,106.76871Q196.68517,106.69629 196.67459,106.47773Q196.60545,106.34174 196.59563,106.13879Q196.58128,105.84218 196.6338,105.63473Q196.627,105.49422 196.69737,105.33248Q196.95749,104.8907 197.49133,104.28813Q198.04001,103.66883 198.18027,103.65869L213.40614,102.55786Q213.6479,98.82759 214.20485,94.82388Q214.76103,90.80457 215.64174,87.0281L216.49889,86.96613L217.27809,86.90979Q217.58099,87.02888 218.0762,87.24373Q218.58698,87.45745 219.09625,87.63995Q219.60553,87.82246 219.97604,88.04632Q220.34583,88.25457 220.34959,88.33263L221.03925,102.58562Q222.25482,102.49774 224.07489,101.97451Q225.90977,101.43453 227.63812,101.27824Q229.38206,101.12083 230.61453,101.70534Q231.86259,102.28874 231.96608,104.42747Q232.02499,105.64514 231.24557,106.3438Q230.46617,107.04244 229.26645,107.45816Q228.06598,107.85827 226.71544,108.06557Q225.38046,108.27175 224.14581,108.61167Q222.91115,108.95159 222.15762,109.5387Q221.40408,110.12582 221.45242,111.12494Q221.53552,112.84217 222.35608,114.28676Q223.17589,115.71574 224.13368,117.08774Q225.09073,118.44413 225.86453,119.8921Q226.65317,121.32333 226.73627,123.04056Q226.89111,126.24085 223.69633,126.47183Q222.20023,126.58 220.9416,125.77805Q219.69855,124.97497 218.65981,123.54616Q217.63666,122.11622 216.79947,120.32818Q215.96153,118.52454 215.32469,116.67502Q214.70341,114.82438 214.33905,113.11182Q213.97394,111.38364 213.77477,110.17612L198.4046,108.29521z" fill="#aaff56"/>
   <path id="imagebot_33" clip-path="url(#imagebot_1)" fill-rule="nonzero" d="M53.04317,113.38284L101.31332,102.77141" fill-opacity="0" fill="#aaff56"/>
   <path fill="#aaff56" id="imagebot_34" clip-path="url(#imagebot_1)" fill-rule="nonzero" d="M53.04317,113.38284L101.31332,102.77141" stroke-linejoin="round" stroke-width="2" stroke="#000000"/>
   <path id="imagebot_35" clip-path="url(#imagebot_1)" fill-rule="nonzero" d="M57.80074,135.02692L80.31329,130.07788" fill-opacity="0" fill="#aaff56"/>
   <path fill="#aaff56" id="imagebot_36" clip-path="url(#imagebot_1)" fill-rule="nonzero" d="M57.80074,135.02692L80.31329,130.07788" stroke-linejoin="round" stroke-width="2" stroke="#000000"/>
   <path id="imagebot_37" clip-path="url(#imagebot_1)" fill-rule="nonzero" d="M61.57029,152.17616L116.33054,140.13799" fill-opacity="0" fill="#aaff56"/>
   <path fill="#aaff56" id="imagebot_38" clip-path="url(#imagebot_1)" fill-rule="nonzero" d="M61.57029,152.17616L116.33054,140.13799" stroke-linejoin="round" stroke-width="2" stroke="#000000"/>
   <path id="imagebot_39" clip-path="url(#imagebot_1)" fill-rule="nonzero" d="M77.20912,196.4413L238.24483,161.04015" fill-opacity="0" fill="#aaff56"/>
   <path fill="#aaff56" id="imagebot_40" clip-path="url(#imagebot_1)" fill-rule="nonzero" d="M77.20912,196.4413L238.24483,161.04015" stroke-linejoin="round" stroke-width="2" stroke="#000000"/>
   <path id="imagebot_41" clip-path="url(#imagebot_1)" fill-rule="nonzero" d="M82.63461,217.13405L259.69275,178.21062" fill-opacity="0" fill="#aaff56"/>
   <path fill="#aaff56" id="imagebot_42" clip-path="url(#imagebot_1)" fill-rule="nonzero" d="M82.63461,217.13405L259.69275,178.21062" stroke-linejoin="round" stroke-width="2" stroke="#000000"/>
   <path id="imagebot_43" clip-path="url(#imagebot_1)" fill-rule="nonzero" d="M86.52004,238.96164L258.81201,201.08598" fill-opacity="0" fill="#aaff56"/>
   <path fill="#aaff56" id="imagebot_44" clip-path="url(#imagebot_1)" fill-rule="nonzero" d="M86.52004,238.96164L258.81201,201.08598" stroke-linejoin="round" stroke-width="2" stroke="#000000"/>
   <path id="imagebot_45" clip-path="url(#imagebot_1)" fill-rule="nonzero" d="M93.95237,261.16699L261.70724,225.86488" fill-opacity="0" fill="#aaff56"/>
   <path fill="#aaff56" id="imagebot_46" clip-path="url(#imagebot_1)" fill-rule="nonzero" d="M93.95237,261.16699L261.70724,225.86488" stroke-linejoin="round" stroke-width="2" stroke="#000000"/>
   <path id="imagebot_47" clip-path="url(#imagebot_1)" fill-rule="nonzero" d="M96.17983,286.49493L276.48303,246.85814" fill-opacity="0" fill="#aaff56"/>
   <path fill="#aaff56" id="imagebot_48" clip-path="url(#imagebot_1)" fill-rule="nonzero" d="M96.17983,286.49493L276.48303,246.85814" stroke-linejoin="round" stroke-width="2" stroke="#000000"/>
   <path id="imagebot_49" clip-path="url(#imagebot_1)" fill-rule="nonzero" d="M103.86338,306.25623L271.61826,270.9541" fill-opacity="0" fill="#aaff56"/>
   <path fill="#aaff56" id="imagebot_50" clip-path="url(#imagebot_1)" fill-rule="nonzero" d="M103.86338,306.25623L271.61826,270.9541" stroke-linejoin="round" stroke-width="2" stroke="#000000"/>
   <path id="imagebot_51" clip-path="url(#imagebot_1)" fill-rule="nonzero" d="M105.50734,328.92957L285.81055,289.29276" fill-opacity="0" fill="#aaff56"/>
   <path fill="#aaff56" id="imagebot_52" clip-path="url(#imagebot_1)" fill-rule="nonzero" d="M105.50734,328.92957L285.81055,289.29276" stroke-linejoin="round" stroke-width="2" stroke="#000000"/>
  </g>
  <path id="imagebot_54" clip-path="url(#imagebot_1)" fill-rule="nonzero" d="M 43.2702 68.8341 L 278.467 84.1058 L 260.55 359.941 L 25.3529 344.67 L 43.2702 68.8341 Z" fill="#ffd4aa"/>
  <path id="imagebot_55" clip-path="url(#imagebot_1)" fill-rule="nonzero" d="M 200.58 73.9154 L 313.507 90.9619 L 291.931 173.809 L 179.004 156.762 L 200.58 73.9154 Z" fill-opacity="0" fill="#000000">Departmen</path>
  <path transform="matrix(0.960714 0.27754 -0.27754 0.960714 45.6571 -22.808)" id="imagebot_57" clip-path="url(#imagebot_1)" fill-rule="nonzero" d="M 53.0432 113.383 L 101.313 102.771" fill="#ffd4aa"/>
  <path transform="matrix(0.960714 0.27754 -0.27754 0.960714 45.6571 -22.808)" fill="#ffd4aa" id="imagebot_58" clip-path="url(#imagebot_1)" fill-rule="nonzero" d="M 53.0432 113.383 L 101.313 102.771" stroke-linejoin="round" stroke-width="2" stroke="#000000"/>
  <path transform="matrix(0.960714 0.27754 -0.27754 0.960714 45.6571 -22.808)" id="imagebot_59" clip-path="url(#imagebot_1)" fill-rule="nonzero" d="M 57.8007 135.027 L 80.3133 130.078" fill="#ffd4aa"/>
  <path transform="matrix(0.960714 0.27754 -0.27754 0.960714 45.6571 -22.808)" fill="#ffd4aa" id="imagebot_60" clip-path="url(#imagebot_1)" fill-rule="nonzero" d="M 57.8007 135.027 L 80.3133 130.078" stroke-linejoin="round" stroke-width="2" stroke="#000000"/>
  <path transform="matrix(0.960714 0.27754 -0.27754 0.960714 45.6571 -22.808)" id="imagebot_61" clip-path="url(#imagebot_1)" fill-rule="nonzero" d="M 61.5703 152.176 L 116.331 140.138" fill="#ffd4aa"/>
  <path transform="matrix(0.960714 0.27754 -0.27754 0.960714 45.6571 -22.808)" fill="#ffd4aa" id="imagebot_62" clip-path="url(#imagebot_1)" fill-rule="nonzero" d="M 61.5703 152.176 L 116.331 140.138" stroke-linejoin="round" stroke-width="2" stroke="#000000"/>
  <path transform="matrix(0.960714 0.27754 -0.27754 0.960714 45.6571 -22.808)" id="imagebot_63" clip-path="url(#imagebot_1)" fill-rule="nonzero" d="M 77.2091 196.441 L 238.245 161.04" fill="#ffd4aa"/>
  <path transform="matrix(0.960714 0.27754 -0.27754 0.960714 45.6571 -22.808)" fill="#ffd4aa" id="imagebot_64" clip-path="url(#imagebot_1)" fill-rule="nonzero" d="M 77.2091 196.441 L 238.245 161.04" stroke-linejoin="round" stroke-width="2" stroke="#000000"/>
  <path transform="matrix(0.960714 0.27754 -0.27754 0.960714 45.6571 -22.808)" id="imagebot_65" clip-path="url(#imagebot_1)" fill-rule="nonzero" d="M 82.6346 217.134 L 259.693 178.211" fill="#ffd4aa"/>
  <path transform="matrix(0.960714 0.27754 -0.27754 0.960714 45.6571 -22.808)" fill="#ffd4aa" id="imagebot_66" clip-path="url(#imagebot_1)" fill-rule="nonzero" d="M 82.6346 217.134 L 259.693 178.211" stroke-linejoin="round" stroke-width="2" stroke="#000000"/>
  <path transform="matrix(0.960714 0.27754 -0.27754 0.960714 45.6571 -22.808)" id="imagebot_67" clip-path="url(#imagebot_1)" fill-rule="nonzero" d="M 86.52 238.962 L 258.812 201.086" fill="#ffd4aa"/>
  <path transform="matrix(0.960714 0.27754 -0.27754 0.960714 45.6571 -22.808)" fill="#ffd4aa" id="imagebot_68" clip-path="url(#imagebot_1)" fill-rule="nonzero" d="M 86.52 238.962 L 258.812 201.086" stroke-linejoin="round" stroke-width="2" stroke="#000000"/>
  <path transform="matrix(0.960714 0.27754 -0.27754 0.960714 45.6571 -22.808)" id="imagebot_69" clip-path="url(#imagebot_1)" fill-rule="nonzero" d="M 93.9524 261.167 L 261.707 225.865" fill="#ffd4aa"/>
  <path transform="matrix(0.960714 0.27754 -0.27754 0.960714 45.6571 -22.808)" fill="#ffd4aa" id="imagebot_70" clip-path="url(#imagebot_1)" fill-rule="nonzero" d="M 93.9524 261.167 L 261.707 225.865" stroke-linejoin="round" stroke-width="2" stroke="#000000"/>
  <path transform="matrix(0.960714 0.27754 -0.27754 0.960714 45.6571 -22.808)" id="imagebot_71" clip-path="url(#imagebot_1)" fill-rule="nonzero" d="M 96.1798 286.495 L 276.483 246.858" fill="#ffd4aa"/>
  <path transform="matrix(0.960714 0.27754 -0.27754 0.960714 45.6571 -22.808)" fill="#ffd4aa" id="imagebot_72" clip-path="url(#imagebot_1)" fill-rule="nonzero" d="M 96.1798 286.495 L 276.483 246.858" stroke-linejoin="round" stroke-width="2" stroke="#000000"/>
  <path transform="matrix(0.960714 0.27754 -0.27754 0.960714 45.6571 -22.808)" id="imagebot_73" clip-path="url(#imagebot_1)" fill-rule="nonzero" d="M 103.863 306.256 L 271.618 270.954" fill="#ffd4aa"/>
  <path transform="matrix(0.960714 0.27754 -0.27754 0.960714 45.6571 -22.808)" fill="#ffd4aa" id="imagebot_74" clip-path="url(#imagebot_1)" fill-rule="nonzero" d="M 103.863 306.256 L 271.618 270.954" stroke-linejoin="round" stroke-width="2" stroke="#000000"/>
  <path transform="matrix(0.960714 0.27754 -0.27754 0.960714 45.6571 -22.808)" id="imagebot_75" clip-path="url(#imagebot_1)" fill-rule="nonzero" d="M 105.507 328.93 L 285.811 289.293" fill="#ffd4aa"/>
  <path transform="matrix(0.960714 0.27754 -0.27754 0.960714 45.6571 -22.808)" fill="#ffd4aa" id="imagebot_76" clip-path="url(#imagebot_1)" fill-rule="nonzero" d="M 105.507 328.93 L 285.811 289.293" stroke-linejoin="round" stroke-width="2" stroke="#000000"/>
  <text transform="rotate(3.99091 199 118) matrix(1 0 0 1 44 9)" xml:space="preserve" text-anchor="middle" font-family="Cursive" font-size="24" id="imagebot_101" y="117" x="155" stroke-opacity="null" stroke-linecap="null" stroke-linejoin="null" stroke-dasharray="null" stroke-width="0" stroke="null" fill="#000000">Department</text>
  <text font-weight="bold" transform="rotate(4.96974 189 154) translate(47 19)" xml:space="preserve" text-anchor="middle" font-family="Cursive" font-size="38" id="imagebot_102" y="147" x="142" stroke-opacity="null" stroke-linecap="null" stroke-linejoin="null" stroke-dasharray="null" stroke-width="0" stroke="null" fill="#000000">Report</text>
 </g>
 <metadata>image/svg+xmlOpenclipartGood Grade2014-02-27T13:37:16A good grade assignmenthttps://openclipart.org/detail/191354/good-grade--by-scout-191354ScoutA+assignmentexamgood gradesgradespaperreportschoolsuccesstestwriting</metadata>
</svg>